<svg width="495" height="207" viewBox="0 0 495 207" fill="none" xmlns="http://www.w3.org/2000/svg">
<g opacity="0.1">
<g clip-path="url(#clip0_11_112)">
<path d="M222.021 160.09C225.485 160.09 228.676 159.439 231.597 158.151C234.517 156.864 237.007 155.084 239.098 152.844C241.172 150.603 242.816 147.981 243.997 144.994C245.178 142.006 245.768 138.78 245.768 135.332V135.157C245.768 131.709 245.178 128.467 243.997 125.448C242.816 122.429 241.156 119.791 239.018 117.55C236.879 115.309 234.358 113.53 231.437 112.195C228.517 110.876 225.325 110.208 221.862 110.208C218.399 110.208 215.207 110.86 212.286 112.147C209.366 113.434 206.876 115.214 204.786 117.455C202.711 119.695 201.067 122.317 199.886 125.305C198.705 128.292 198.115 131.518 198.115 134.967V135.141C198.115 138.59 198.705 141.831 199.886 144.851C201.067 147.87 202.727 150.508 204.866 152.748C207.004 154.989 209.526 156.769 212.446 158.104C215.367 159.423 218.558 160.09 222.021 160.09ZM221.846 166.383C217.218 166.383 213.021 165.557 209.238 163.888C205.456 162.219 202.2 159.963 199.487 157.118C196.774 154.274 194.684 150.969 193.2 147.203C191.731 143.436 190.997 139.48 190.997 135.348V135.173C190.997 131.026 191.747 127.069 193.247 123.271C194.748 119.473 196.854 116.152 199.567 113.307C202.28 110.463 205.552 108.19 209.35 106.49C213.164 104.79 217.377 103.947 222.006 103.947C226.634 103.947 230.831 104.774 234.613 106.442C238.395 108.111 241.651 110.367 244.364 113.212C247.077 116.056 249.168 119.362 250.652 123.128C252.12 126.894 252.854 130.851 252.854 134.982V135.157C252.854 139.305 252.104 143.262 250.604 147.06C249.104 150.857 246.997 154.179 244.284 157.023C241.571 159.868 238.3 162.14 234.501 163.84C230.687 165.541 226.474 166.383 221.846 166.383ZM156.957 111.257H136.593V104.964H184.151V111.257H163.787V165.334H156.941V111.257H156.957ZM98.6585 166.288C94.9081 166.288 91.4769 165.731 88.3968 164.603C85.3008 163.475 82.6516 161.822 80.4333 159.597C78.215 157.373 76.4914 154.639 75.2786 151.366C74.0657 148.092 73.4592 144.326 73.4592 140.067V104.964H80.3056V139.638C80.3056 146.201 81.9494 151.223 85.237 154.735C88.5245 158.247 93.0569 159.995 98.834 159.995C104.611 159.995 108.888 158.326 112.176 154.989C115.463 151.652 117.107 146.678 117.107 140.067V104.964H123.953V139.559C123.953 143.993 123.347 147.87 122.134 151.207C120.921 154.544 119.198 157.325 116.979 159.582C114.761 161.822 112.096 163.507 109.016 164.635C105.92 165.763 102.473 166.319 98.6585 166.319V166.288ZM44.5096 143.166L30.737 112.465L16.8687 143.166H44.5256H44.5096ZM27.6091 104.519H34.0246L61.6655 165.334H54.3084L47.2067 149.38H14.2035L7.006 165.334H0L27.641 104.519H27.6091Z" fill="#525252"/>
<path d="M431.196 72.9758C431.116 69.9406 428.627 67.4934 425.546 67.4934C423.296 67.4934 421.381 68.8123 420.456 70.6875C404.784 67.557 388.17 64.8873 371.461 61.2641C371.158 57.7046 368.206 54.9078 364.551 54.9078C363.211 54.9078 361.966 55.305 360.897 55.9566L309.908 17.1827C310.019 16.7536 310.083 16.3246 310.083 15.8637C310.083 12.7491 307.546 10.2225 304.418 10.2225C302.423 10.2225 300.683 11.2395 299.678 12.7809C270.058 8.12485 239.497 5.67764 209.573 5.67764C203.094 5.67764 195.689 5.88423 187.758 6.24972C186.8 3.02386 183.8 0.671997 180.241 0.671997C176.379 0.671997 173.171 3.45291 172.533 7.12372C145.227 8.95118 99.9193 13.6231 78.1831 17.0397C77.1618 16.0068 75.7254 15.3552 74.1615 15.3552C71.0335 15.3552 68.496 17.8819 68.496 20.9965C68.496 22.093 68.8312 23.11 69.3738 23.984L34.3438 62.2653C33.5937 61.9634 32.7638 61.7886 31.9021 61.7886C28.2953 61.7886 25.3589 64.6966 25.3589 68.3038C25.3589 69.9406 25.9972 71.4344 27.0027 72.5785C24.9918 75.5342 23.4757 79.2686 22.8214 83.4161C21.8 89.8837 23.0448 95.8905 25.8057 99.8791C24.2258 96.2878 23.6353 91.4887 24.4492 86.3559C25.2312 81.3821 27.9921 77.6318 30.6413 74.7079C31.0403 74.7873 31.4712 74.835 31.8861 74.835C35.4928 74.835 38.4293 71.927 38.4293 68.3197C38.4293 67.0167 38.0303 65.809 37.376 64.7919L72.5496 26.3994C73.0603 26.5583 73.6029 26.6696 74.1615 26.6696C77.2256 26.6696 79.7152 24.2383 79.8109 21.2031C102.521 17.8342 146.807 13.353 173.091 11.6526C174.304 14.4018 177.065 16.3087 180.273 16.3087C183.784 16.3087 186.752 14.0204 187.758 10.8422C195.641 10.4926 203.03 10.3019 209.605 10.3019C239.305 10.3019 269.531 12.622 298.912 17.0397C299.454 19.5981 301.721 21.505 304.45 21.505C305.742 21.505 306.923 21.0601 307.881 20.3291L358.391 58.7375C357.912 59.6751 357.609 60.7239 357.609 61.8521C357.609 65.6818 360.737 68.7965 364.583 68.7965C367.121 68.7965 369.307 67.4457 370.536 65.4276C387.149 69.3368 403.986 71.6886 420.057 74.3265C420.615 76.8691 422.865 78.776 425.594 78.776C427.621 78.776 429.393 77.7113 430.382 76.1063C450.411 79.7453 468.827 84.5444 483.541 94.3968C469.561 83.5433 451.432 77.5365 431.244 72.9758M31.918 72.6421C29.5082 72.6421 27.5612 70.7034 27.5612 68.3038C27.5612 65.9043 29.5082 63.9656 31.918 63.9656C34.3278 63.9656 36.2748 65.9043 36.2748 68.3038C36.2748 70.7034 34.3278 72.6421 31.918 72.6421ZM74.1295 24.7786C72.0389 24.7786 70.3473 23.0941 70.3473 21.0124C70.3473 18.9307 72.0389 17.2462 74.1295 17.2462C76.2202 17.2462 77.9118 18.9307 77.9118 21.0124C77.9118 23.0941 76.2202 24.7786 74.1295 24.7786ZM180.225 13.7026C177.336 13.7026 174.99 11.3666 174.99 8.49034C174.99 5.61408 177.336 3.27811 180.225 3.27811C183.113 3.27811 185.459 5.61408 185.459 8.49034C185.459 11.3666 183.113 13.7026 180.225 13.7026ZM304.402 19.6299C302.311 19.6299 300.619 17.9454 300.619 15.8637C300.619 13.782 302.311 12.0976 304.402 12.0976C306.492 12.0976 308.184 13.782 308.184 15.8637C308.184 17.9454 306.492 19.6299 304.402 19.6299ZM364.535 66.4923C361.966 66.4923 359.891 64.4264 359.891 61.868C359.891 59.3096 361.966 57.2437 364.535 57.2437C367.105 57.2437 369.179 59.3096 369.179 61.868C369.179 64.4264 367.105 66.4923 364.535 66.4923ZM425.531 76.9008C423.44 76.9008 421.748 75.2164 421.748 73.1347C421.748 71.053 423.44 69.3685 425.531 69.3685C427.621 69.3685 429.313 71.053 429.313 73.1347C429.313 75.2164 427.621 76.9008 425.531 76.9008Z" fill="#525252"/>
<path d="M450.73 104.964H494.569V111.178H457.576V131.788H490.675V138.002H457.576V159.137H495V165.35H450.73V104.964V104.964ZM393.118 104.964H436.686V111.257H399.948V132.821H432.776V139.035H399.948V165.35H393.102V104.964H393.118ZM363.227 143.182L349.454 112.481L335.586 143.182H363.227V143.182ZM346.326 104.535H352.742L380.383 165.35H373.025L365.924 149.395H332.921L325.723 165.35H318.701L346.342 104.535H346.326ZM288.459 166.208C283.607 166.208 279.171 165.413 275.165 163.84C271.159 162.251 267.329 159.836 263.69 156.546L267.936 151.541C271.111 154.417 274.319 156.562 277.559 157.961C280.798 159.375 284.517 160.074 288.73 160.074C292.943 160.074 296.103 159.105 298.561 157.182C301.019 155.259 302.247 152.796 302.247 149.809V149.634C302.247 148.251 302.024 146.996 301.561 145.884C301.098 144.755 300.284 143.738 299.135 142.817C297.986 141.895 296.374 141.069 294.332 140.322C292.289 139.575 289.672 138.86 286.496 138.161C283.033 137.414 280.016 136.556 277.447 135.57C274.878 134.585 272.755 133.409 271.079 132.027C269.404 130.644 268.159 129.039 267.361 127.196C266.547 125.352 266.148 123.207 266.148 120.728V120.553C266.148 118.202 266.643 116.009 267.616 113.99C268.606 111.972 269.978 110.24 271.782 108.778C273.569 107.316 275.676 106.156 278.101 105.33C280.527 104.504 283.176 104.074 286.065 104.074C290.517 104.074 294.396 104.694 297.715 105.934C301.034 107.173 304.258 109.032 307.37 111.496L303.38 116.755C300.556 114.451 297.699 112.783 294.842 111.75C291.986 110.717 289.001 110.192 285.873 110.192C281.884 110.192 278.74 111.13 276.426 112.989C274.112 114.864 272.963 117.169 272.963 119.934V120.108C272.963 121.539 273.186 122.826 273.649 123.954C274.112 125.082 274.942 126.115 276.154 127.053C277.367 128.006 279.043 128.864 281.181 129.643C283.304 130.422 286.049 131.153 289.384 131.836C296.119 133.33 301.098 135.396 304.306 138.049C307.498 140.687 309.094 144.31 309.094 148.919V149.093C309.094 151.684 308.567 154.02 307.546 156.117C306.524 158.215 305.104 160.011 303.301 161.504C301.497 162.998 299.327 164.142 296.789 164.953C294.252 165.763 291.475 166.16 288.475 166.16L288.459 166.208Z" fill="#525252"/>
<path d="M351.672 190.124C355.646 190.124 358.247 192.841 358.247 196.544V196.592C358.247 200.294 355.646 202.964 351.672 202.964H347.938V190.124H351.672V190.124ZM344.602 205.983H351.672C357.625 205.983 361.742 201.851 361.742 196.544V196.496C361.742 191.189 357.625 187.105 351.672 187.105H344.602V205.983ZM321.175 205.983H335.362V203.011H324.494V197.942H334.006V194.971H324.494V190.06H335.219V187.089H321.159V205.967L321.175 205.983ZM299.646 196.464V190.124H304.498C306.955 190.124 308.423 191.236 308.423 193.254V193.302C308.423 195.225 306.907 196.464 304.529 196.464H299.646ZM296.311 205.983H299.646V199.404H303.811L308.471 205.983H312.429L307.306 198.832C309.94 198.069 311.807 196.21 311.807 193.111V193.064C311.807 191.411 311.232 190.013 310.243 188.996C309.03 187.804 307.163 187.105 304.769 187.105H296.311V205.983V205.983ZM277.112 203.234C273.346 203.234 270.665 200.215 270.665 196.544V196.496C270.665 192.825 273.298 189.838 277.064 189.838C280.83 189.838 283.511 192.889 283.511 196.56V196.607C283.511 200.278 280.878 203.25 277.112 203.25V203.234ZM277.064 206.317C282.889 206.317 287.006 201.867 287.006 196.56V196.512C287.006 191.205 282.937 186.803 277.112 186.803C271.287 186.803 267.169 191.252 267.169 196.56V196.607C267.169 201.915 271.239 206.317 277.064 206.317ZM250.875 205.999H254.227V190.188H260.243V187.121H244.859V190.188H250.875V205.999V205.999ZM228.198 206.301C233.161 206.301 236.353 203.472 236.353 197.831V187.121H233.017V197.99C233.017 201.47 231.198 203.218 228.245 203.218C225.293 203.218 223.458 201.359 223.458 197.847V187.105H220.122V197.974C220.122 203.456 223.266 206.285 228.198 206.285V206.301ZM163.675 205.999H167.027V198.467L174.559 187.105H170.745L165.383 195.432L160.101 187.105H156.143L163.675 198.546V205.983V205.999ZM198.705 198.498L201.961 190.95L205.233 198.498H198.705V198.498ZM192.13 205.999H195.546L197.493 201.438H206.461L208.393 205.999H211.919L203.573 186.978H200.493L192.146 205.999H192.13ZM145.722 200.421V200.469C145.722 202.169 144.333 203.059 142.067 203.059H136.545V197.879H141.828C144.461 197.879 145.722 198.816 145.722 200.421V200.421ZM144.668 192.523C144.668 194.256 143.232 195.082 141.093 195.082H136.545V190.06H141.333C143.471 190.06 144.668 190.982 144.668 192.46V192.508V192.523ZM133.258 206.015H142.035C146.264 206.015 149.057 204.203 149.057 200.834V200.787C149.057 198.228 147.509 196.957 145.291 196.194C146.695 195.463 148.004 194.256 148.004 191.983V191.936C148.004 190.664 147.573 189.647 146.727 188.805C145.642 187.724 143.934 187.136 141.764 187.136H133.258V206.015V206.015Z" fill="#525252"/>
</g>
</g>
<defs>
<clipPath id="clip0_11_112">
<rect width="495" height="205.629" fill="white" transform="translate(0 0.687988)"/>
</clipPath>
</defs>
</svg>
