<svg width="182" height="76" viewBox="0 0 182 76" fill="none" xmlns="http://www.w3.org/2000/svg">
<g clip-path="url(#clip0_11_85)">
<path d="M81.6321 58.9147C82.9054 58.9147 84.079 58.6739 85.1528 58.1981C86.2266 57.7224 87.142 57.0646 87.9106 56.2365C88.6734 55.4083 89.2778 54.4392 89.712 53.3351C90.1462 52.2309 90.3633 51.0386 90.3633 49.7641V49.6995C90.3633 48.425 90.1462 47.2269 89.712 46.111C89.2778 44.995 88.6676 44.0201 87.8813 43.1919C87.095 42.3638 86.1679 41.706 85.0941 41.2126C84.0203 40.7252 82.8468 40.4785 81.5735 40.4785C80.3002 40.4785 79.1266 40.7193 78.0528 41.195C76.979 41.6708 76.0636 42.3286 75.295 43.1567C74.5322 43.9848 73.9278 44.9539 73.4936 46.0581C73.0593 47.1623 72.8422 48.3545 72.8422 49.629V49.6936C72.8422 50.9681 73.0593 52.1663 73.4936 53.2822C73.9278 54.3981 74.538 55.3731 75.3243 56.2012C76.1106 57.0293 77.0377 57.6871 78.1115 58.1805C79.1853 58.668 80.3588 58.9147 81.6321 58.9147ZM81.5676 61.2405C79.8659 61.2405 78.3227 60.9351 76.9321 60.3184C75.5414 59.7017 74.3444 58.8677 73.3469 57.8164C72.3494 56.765 71.5807 55.5434 71.035 54.1514C70.4951 52.7595 70.2252 51.297 70.2252 49.77V49.7054C70.2252 48.1725 70.501 46.71 71.0526 45.3063C71.6041 43.9026 72.3787 42.6751 73.3762 41.6238C74.3737 40.5725 75.5766 39.7326 76.9731 39.1041C78.3755 38.4757 79.9246 38.1644 81.6263 38.1644C83.3279 38.1644 84.8711 38.4698 86.2618 39.0865C87.6524 39.7032 88.8495 40.5372 89.847 41.5885C90.8445 42.6399 91.6132 43.8615 92.1589 45.2535C92.6987 46.6454 92.9686 48.1079 92.9686 49.6349V49.6995C92.9686 51.2324 92.6928 52.6949 92.1413 54.0986C91.5897 55.5023 90.8152 56.7298 89.8176 57.7811C88.8201 58.8324 87.6172 59.6723 86.2207 60.3007C84.8183 60.9292 83.2692 61.2405 81.5676 61.2405ZM57.7093 40.8661H50.2221V38.5403H67.708V40.8661H60.2207V60.8528H57.7034V40.8661H57.7093ZM36.2744 61.2052C34.8955 61.2052 33.6339 60.9997 32.5015 60.5827C31.3631 60.1657 30.3891 59.5548 29.5735 58.7326C28.7578 57.9103 28.1241 56.9001 27.6782 55.6902C27.2322 54.4803 27.0093 53.0884 27.0093 51.5144V38.5403H29.5265V51.3558C29.5265 53.7814 30.1309 55.6374 31.3396 56.9354C32.5484 58.2334 34.2148 58.8794 36.339 58.8794C38.4631 58.8794 40.0357 58.2627 41.2444 57.0293C42.4532 55.796 43.0575 53.9576 43.0575 51.5144V38.5403H45.5748V51.3264C45.5748 52.965 45.3518 54.3981 44.9059 55.6315C44.4599 56.8649 43.8262 57.8927 43.0106 58.7267C42.195 59.5548 41.2151 60.1774 40.0826 60.5944C38.9443 61.0114 37.6768 61.217 36.2744 61.217V61.2052ZM16.3652 52.6596L11.3013 41.3125L6.20221 52.6596H16.371H16.3652ZM10.1512 38.3759H12.51L22.673 60.8528H19.968L17.3568 54.9561H5.2223L2.57594 60.8528H0L10.1629 38.3759H10.1512Z" fill="#525252"/>
<path d="M158.541 26.7175C158.511 25.5957 157.596 24.6912 156.464 24.6912C155.636 24.6912 154.932 25.1787 154.592 25.8717C148.83 24.7147 142.721 23.728 136.578 22.3889C136.466 21.0733 135.381 20.0396 134.037 20.0396C133.544 20.0396 133.086 20.1864 132.693 20.4272L113.946 6.09646C113.987 5.93788 114.01 5.7793 114.01 5.60898C114.01 4.45782 113.077 3.52397 111.927 3.52397C111.194 3.52397 110.554 3.89986 110.185 4.46957C99.2941 2.7487 88.0573 1.84422 77.0553 1.84422C74.673 1.84422 71.9504 1.92057 69.0341 2.05566C68.682 0.863383 67.5789 -0.00585938 66.2704 -0.00585938C64.8504 -0.00585938 63.671 1.02196 63.4363 2.37868C53.3965 3.05411 36.738 4.78085 28.7461 6.0436C28.3706 5.66184 27.8425 5.42103 27.2675 5.42103C26.1174 5.42103 25.1844 6.35488 25.1844 7.50604C25.1844 7.9113 25.3076 8.28718 25.5071 8.61021L12.6274 22.7589C12.3516 22.6473 12.0465 22.5827 11.7297 22.5827C10.4035 22.5827 9.32388 23.6575 9.32388 24.9907C9.32388 25.5957 9.55859 26.1478 9.92826 26.5706C9.18892 27.6631 8.63149 29.0433 8.39091 30.5762C8.01537 32.9666 8.47306 35.1867 9.48818 36.6609C8.90727 35.3335 8.69016 33.5598 8.98942 31.6628C9.27694 29.8244 10.2921 28.4383 11.2661 27.3577C11.4128 27.387 11.5712 27.4046 11.7238 27.4046C13.0499 27.4046 14.1296 26.3298 14.1296 24.9966C14.1296 24.515 13.9829 24.0686 13.7423 23.6927L26.6748 9.50295C26.8626 9.56168 27.0621 9.6028 27.2675 9.6028C28.3941 9.6028 29.3094 8.70419 29.3446 7.58239C37.6944 6.33726 53.9775 4.681 63.6416 4.05256C64.0876 5.06864 65.1027 5.77343 66.2821 5.77343C67.573 5.77343 68.6644 4.92768 69.0341 3.75303C71.9328 3.62382 74.6495 3.55334 77.067 3.55334C87.9869 3.55334 99.1004 4.41083 109.903 6.0436C110.102 6.98919 110.936 7.69399 111.939 7.69399C112.414 7.69399 112.849 7.52953 113.201 7.25936L131.772 21.455C131.596 21.8016 131.485 22.1892 131.485 22.6062C131.485 24.0216 132.635 25.1728 134.049 25.1728C134.982 25.1728 135.786 24.6736 136.237 23.9277C142.346 25.3725 148.536 26.2417 154.445 27.2167C154.65 28.1564 155.478 28.8612 156.481 28.8612C157.226 28.8612 157.878 28.4677 158.241 27.8745C165.606 29.2195 172.377 30.9932 177.787 34.6346C172.647 30.6232 165.981 28.4031 158.558 26.7175M11.7355 26.5941C10.8495 26.5941 10.1336 25.8776 10.1336 24.9907C10.1336 24.1039 10.8495 23.3873 11.7355 23.3873C12.6216 23.3873 13.3374 24.1039 13.3374 24.9907C13.3374 25.8776 12.6216 26.5941 11.7355 26.5941ZM27.2557 8.90388C26.487 8.90388 25.8651 8.28131 25.8651 7.51191C25.8651 6.74252 26.487 6.11995 27.2557 6.11995C28.0244 6.11995 28.6464 6.74252 28.6464 7.51191C28.6464 8.28131 28.0244 8.90388 27.2557 8.90388ZM66.2645 4.81021C65.2025 4.81021 64.3399 3.94684 64.3399 2.88378C64.3399 1.82072 65.2025 0.957355 66.2645 0.957355C67.3266 0.957355 68.1891 1.82072 68.1891 2.88378C68.1891 3.94684 67.3266 4.81021 66.2645 4.81021ZM111.921 7.00094C111.153 7.00094 110.531 6.37837 110.531 5.60898C110.531 4.83958 111.153 4.21701 111.921 4.21701C112.69 4.21701 113.312 4.83958 113.312 5.60898C113.312 6.37837 112.69 7.00094 111.921 7.00094ZM134.031 24.3212C133.086 24.3212 132.324 23.5577 132.324 22.6121C132.324 21.6665 133.086 20.9029 134.031 20.9029C134.976 20.9029 135.739 21.6665 135.739 22.6121C135.739 23.5577 134.976 24.3212 134.031 24.3212ZM156.458 28.1682C155.689 28.1682 155.067 27.5456 155.067 26.7762C155.067 26.0068 155.689 25.3842 156.458 25.3842C157.226 25.3842 157.848 26.0068 157.848 26.7762C157.848 27.5456 157.226 28.1682 156.458 28.1682Z" fill="#00ABFA"/>
<path d="M165.723 38.5403H181.842V40.8368H168.24V48.4544H180.41V50.7508H168.24V58.5623H182V60.8587H165.723V38.5403V38.5403ZM144.54 38.5403H160.559V40.8661H147.052V48.8362H159.122V51.1326H147.052V60.8587H144.534V38.5403H144.54ZM133.55 52.6655L128.486 41.3184L123.387 52.6655H133.55V52.6655ZM127.336 38.3818H129.695L139.858 60.8587H137.153L134.542 54.962H122.407L119.761 60.8587H117.179L127.342 38.3818H127.336ZM106.06 61.1759C104.276 61.1759 102.645 60.8822 101.172 60.3008C99.699 59.7134 98.2907 58.8207 96.9529 57.6049L98.5137 55.7549C99.6814 56.8179 100.861 57.6108 102.052 58.1277C103.243 58.6504 104.61 58.9088 106.159 58.9088C107.708 58.9088 108.87 58.5505 109.774 57.8399C110.678 57.1292 111.129 56.2188 111.129 55.1147V55.0501C111.129 54.5391 111.047 54.0751 110.877 53.664C110.707 53.247 110.408 52.8711 109.985 52.5304C109.563 52.1898 108.97 51.8844 108.219 51.6083C107.468 51.3323 106.506 51.068 105.338 50.8096C104.065 50.5335 102.956 50.2164 102.011 49.8522C101.066 49.4881 100.286 49.0535 99.6697 48.5425C99.0535 48.0315 98.5959 47.4383 98.3025 46.757C98.0032 46.0757 97.8565 45.2828 97.8565 44.3666V44.302C97.8565 43.4328 98.0384 42.6222 98.3964 41.8763C98.7602 41.1304 99.2648 40.4903 99.9278 39.9499C100.585 39.4096 101.36 38.9808 102.251 38.6754C103.143 38.37 104.117 38.2114 105.179 38.2114C106.817 38.2114 108.242 38.4405 109.463 38.8986C110.683 39.3567 111.869 40.0439 113.013 40.9542L111.546 42.8983C110.507 42.0467 109.457 41.43 108.407 41.0482C107.356 40.6665 106.259 40.4726 105.109 40.4726C103.642 40.4726 102.486 40.8192 101.635 41.5063C100.785 42.1994 100.362 43.051 100.362 44.0729V44.1375C100.362 44.6661 100.444 45.1419 100.614 45.5589C100.785 45.9759 101.09 46.3576 101.536 46.7042C101.982 47.0566 102.598 47.3737 103.384 47.6615C104.164 47.9493 105.174 48.2195 106.4 48.472C108.876 49.0241 110.707 49.7876 111.886 50.7685C113.06 51.7434 113.647 53.0825 113.647 54.7858V54.8504C113.647 55.8077 113.453 56.6711 113.077 57.4464C112.702 58.2216 112.18 58.8853 111.517 59.4374C110.854 59.9895 110.056 60.4124 109.123 60.7119C108.19 61.0114 107.169 61.1583 106.065 61.1583L106.06 61.1759Z" fill="#00ABFA"/>
<path d="M129.302 70.0152C130.763 70.0152 131.719 71.0195 131.719 72.388V72.4056C131.719 73.7741 130.763 74.7608 129.302 74.7608H127.929V70.0152H129.302V70.0152ZM126.702 75.8767H129.302C131.49 75.8767 133.004 74.3496 133.004 72.388V72.3703C133.004 70.4087 131.49 68.8992 129.302 68.8992H126.702V75.8767ZM118.088 75.8767H123.305V74.7784H119.309V72.9048H122.806V71.8065H119.309V69.9917H123.252V68.8934H118.083V75.8708L118.088 75.8767ZM110.173 72.3586V70.0152H111.957C112.86 70.0152 113.4 70.4263 113.4 71.1722V71.1898C113.4 71.9005 112.843 72.3586 111.968 72.3586H110.173ZM108.947 75.8767H110.173V73.4452H111.704L113.418 75.8767H114.873L112.989 73.2337C113.958 72.9518 114.644 72.2646 114.644 71.1193V71.1017C114.644 70.4909 114.433 69.9741 114.069 69.5982C113.623 69.1577 112.937 68.8992 112.056 68.8992H108.947V75.8767V75.8767ZM101.888 74.8606C100.503 74.8606 99.5171 73.7447 99.5171 72.388V72.3703C99.5171 71.0136 100.485 69.9094 101.87 69.9094C103.255 69.9094 104.241 71.0371 104.241 72.3938V72.4115C104.241 73.7682 103.272 74.8665 101.888 74.8665V74.8606ZM101.87 76C104.012 76 105.526 74.3555 105.526 72.3938V72.3762C105.526 70.4146 104.029 68.7877 101.888 68.7877C99.7459 68.7877 98.232 70.4322 98.232 72.3938V72.4115C98.232 74.3731 99.7283 76 101.87 76ZM92.241 75.8826H93.4733V70.0387H95.6854V68.9051H90.0289V70.0387H92.241V75.8826V75.8826ZM83.903 75.9941C85.7278 75.9941 86.9014 74.9487 86.9014 72.8637V68.9051H85.675V72.9224C85.675 74.2087 85.0061 74.8547 83.9206 74.8547C82.835 74.8547 82.1603 74.1676 82.1603 72.8696V68.8992H80.9339V72.9166C80.9339 74.9428 82.0898 75.9883 83.903 75.9883V75.9941ZM60.1797 75.8826H61.4119V73.0986L64.1815 68.8992H62.7791L60.8075 71.9768L58.8653 68.8992H57.4101L60.1797 73.128V75.8767V75.8826ZM73.0594 73.1104L74.2564 70.3206L75.4593 73.1104H73.0594V73.1104ZM70.6419 75.8826H71.8976L72.6134 74.1969H75.9111L76.6211 75.8826H77.9179L74.849 68.8523H73.7166L70.6477 75.8826H70.6419ZM53.5784 73.821V73.8387C53.5784 74.4671 53.0679 74.796 52.2347 74.796H50.2045V72.8813H52.1467C53.1149 72.8813 53.5784 73.2278 53.5784 73.821V73.821ZM53.1912 70.902C53.1912 71.5422 52.6631 71.8476 51.8768 71.8476H50.2045V69.9917H51.9648C52.7511 69.9917 53.1912 70.3323 53.1912 70.8785V70.8962V70.902ZM48.9957 75.8884H52.223C53.7779 75.8884 54.8048 75.2189 54.8048 73.9737V73.9561C54.8048 73.0105 54.2356 72.5407 53.42 72.2588C53.9364 71.9886 54.4175 71.5422 54.4175 70.7023V70.6847C54.4175 70.2149 54.2591 69.839 53.9481 69.5277C53.5491 69.1283 52.9213 68.911 52.1232 68.911H48.9957V75.8884V75.8884Z" fill="#525252"/>
</g>
<defs>
<clipPath id="clip0_11_85">
<rect width="182" height="76" fill="white"/>
</clipPath>
</defs>
</svg>
