<svg width="40" height="40" viewBox="0 0 40 40" fill="none" xmlns="http://www.w3.org/2000/svg">
<g clip-path="url(#clip0_11_104)">
<path d="M30 14.9953H25V9.9969C25 8.67123 24.4732 7.39985 23.5355 6.46246C22.5979 5.52507 21.3261 4.99845 20 4.99845C18.6739 4.99845 17.4021 5.52507 16.4645 6.46246C15.5268 7.39985 15 8.67123 15 9.9969V14.9953H10V9.9969C10 7.34556 11.0536 4.80281 12.9289 2.92802C14.8043 1.05324 17.3478 0 20 0C22.6522 0 25.1957 1.05324 27.0711 2.92802C28.9464 4.80281 30 7.34556 30 9.9969V14.9953Z" fill="#4E4D4D"/>
<path d="M35 17.4946H5C4.33696 17.4946 3.70107 17.7579 3.23223 18.2266C2.76339 18.6953 2.5 19.331 2.5 19.9938V37.4884C2.5 38.1512 2.76339 38.7869 3.23223 39.2556C3.70107 39.7243 4.33696 39.9876 5 39.9876H35C35.663 39.9876 36.2989 39.7243 36.7678 39.2556C37.2366 38.7869 37.5 38.1512 37.5 37.4884V19.9938C37.5 19.331 37.2366 18.6953 36.7678 18.2266C36.2989 17.7579 35.663 17.4946 35 17.4946ZM20 32.4899C19.0111 32.4899 18.0444 32.1968 17.2221 31.6475C16.3999 31.0983 15.759 30.3176 15.3806 29.4043C15.0022 28.4909 14.9031 27.4859 15.0961 26.5163C15.289 25.5467 15.7652 24.6561 16.4645 23.957C17.1637 23.258 18.0546 22.7819 19.0245 22.5891C19.9945 22.3962 20.9998 22.4952 21.9134 22.8735C22.827 23.2518 23.6079 23.8925 24.1573 24.7145C24.7068 25.5365 25 26.5029 25 27.4915C25 28.8171 24.4732 30.0885 23.5355 31.0259C22.5979 31.9633 21.3261 32.4899 20 32.4899Z" fill="#4E4D4D"/>
</g>
<defs>
<clipPath id="clip0_11_104">
<rect width="40" height="39.9876" fill="white"/>
</clipPath>
</defs>
</svg>
